<?xml version="1.0" encoding="UTF-8" standalone="no"?>
<!DOCTYPE svg PUBLIC "-//W3C//DTD SVG 1.1//EN" "http://www.w3.org/Graphics/SVG/1.1/DTD/svg11.dtd">
<svg width="100%" height="100%" viewBox="0 0 432 299" version="1.1" xmlns="http://www.w3.org/2000/svg" xmlns:xlink="http://www.w3.org/1999/xlink" xml:space="preserve" xmlns:serif="http://www.serif.com/" style="fill-rule:evenodd;clip-rule:evenodd;stroke-linejoin:round;stroke-miterlimit:2;">
    <g transform="matrix(1,0,0,1,-133,-130)">
        <path d="M562.8,413.28L562.8,145.6C562.8,139.44 557.761,134.401 551.601,134.401L148.401,134.397C142.241,134.397 137.202,139.436 137.202,145.596L137.202,416.634C137.202,417.755 137.761,418.314 137.761,419.435L137.761,419.994C138.319,420.552 138.319,421.115 138.882,421.673C138.882,421.673 139.44,421.673 139.44,422.232C139.999,422.791 140.561,423.353 141.679,423.912L142.237,423.912C142.796,424.47 143.358,424.47 144.475,425.033L145.034,425.033C146.155,425.033 146.714,425.591 147.835,425.591L551.035,425.591C557.195,425.591 562.234,420.552 562.234,414.392C562.804,413.838 562.804,413.838 562.804,413.279L562.8,413.28ZM170.8,403.198L294,242.478L397.04,377.438L416.642,403.2L170.8,403.198ZM445.2,403.198L420.001,370.159L462.001,315.28L528.642,403.198L445.2,403.198ZM540.399,381.358L470.961,290.077C468.723,287.276 465.359,285.597 462,285.597C458.641,285.597 455.281,287.276 453.039,290.077L406,352.237L302.96,217.277C300.722,214.476 297.359,212.796 293.999,212.796C290.64,212.796 287.28,214.476 285.038,217.277L159.598,381.357L159.598,156.797L540.398,156.797L540.399,381.358ZM411.599,190.398C389.759,190.398 372.4,207.757 372.4,229.597C372.4,251.437 389.759,268.796 411.599,268.796C433.439,268.796 450.798,251.437 450.798,229.597C450.798,207.761 432.876,190.398 411.599,190.398ZM411.599,246.398C402.638,246.398 394.798,238.558 394.798,229.597C394.798,220.078 402.079,212.796 411.599,212.796C421.118,212.796 428.4,220.077 428.4,229.597C428.396,238.558 420.556,246.398 411.599,246.398Z" style="fill-rule:nonzero;"/>
        <g id="u">
        </g>
        <g id="a">
        </g>
        <g id="b">
        </g>
        <g id="f">
        </g>
        <g id="e">
        </g>
        <g id="b1" serif:id="b">
        </g>
        <g id="j">
        </g>
        <g id="i">
        </g>
        <g id="d">
        </g>
        <g id="h">
        </g>
        <g id="a1" serif:id="a">
        </g>
        <g id="d1" serif:id="d">
        </g>
        <g id="g">
        </g>
        <g id="t">
        </g>
        <g id="f1" serif:id="f">
        </g>
        <g id="d2" serif:id="d">
        </g>
        <g id="s">
        </g>
        <g id="c">
        </g>
        <g id="a2" serif:id="a">
        </g>
        <g id="r">
        </g>
        <g id="a3" serif:id="a">
        </g>
        <g id="c1" serif:id="c">
        </g>
        <g id="q">
        </g>
        <g id="e1" serif:id="e">
        </g>
        <g id="p">
        </g>
        <g id="b2" serif:id="b">
        </g>
        <g id="o">
        </g>
        <g id="c2" serif:id="c">
        </g>
        <g id="n">
        </g>
        <g id="g1" serif:id="g">
        </g>
        <g id="m">
        </g>
        <g id="a4" serif:id="a">
        </g>
        <g id="c3" serif:id="c">
        </g>
        <g id="l">
        </g>
        <g id="b3" serif:id="b">
        </g>
        <g id="k">
        </g>
        <g id="e2" serif:id="e">
        </g>
    </g>
</svg>
