<?xml version="1.0" encoding="UTF-8" standalone="no"?><!DOCTYPE svg PUBLIC "-//W3C//DTD SVG 1.1//EN" "http://www.w3.org/Graphics/SVG/1.1/DTD/svg11.dtd"><svg width="100%" height="100%" viewBox="0 0 3548 2861" version="1.1" xmlns="http://www.w3.org/2000/svg" xmlns:xlink="http://www.w3.org/1999/xlink" xml:space="preserve" xmlns:serif="http://www.serif.com/" style="fill-rule:evenodd;clip-rule:evenodd;stroke-linejoin:round;stroke-miterlimit:1.41421;"><path d="M89.207,2133.02l121.512,0l0,-2083.18l-121.512,0l0,2083.18Zm251.136,0l372.622,0l0,-2083.18l-372.622,0l0,2083.18Zm494.159,-2083.18l0,2083.11l372.621,0l0,-2083.11l-372.621,0Z" style="fill:#900;fill-rule:nonzero;"/><path d="M3087.37,2133.17l121.537,0l0,-2083.33l-121.537,0l0,2083.33Zm251.161,-2083.33l0,2083.33l121.512,0l0,-2083.33l-121.512,0Zm-2005.85,2083.33l121.511,0l0,-2083.33l-121.511,0l0,2083.33Zm251.161,-2083.33l0,2083.26l121.536,0l0,-2083.26l-121.536,0Z" style="fill:#396;fill-rule:nonzero;"/><path d="M1830.88,2133.17l372.673,0l0,-2083.33l-372.673,0l0,2083.33Zm494.159,0l129.599,0l0,-2083.33l-129.599,0l0,2083.33Zm251.135,-2083.33l0,2083.26l372.622,0l0,-2083.26l-372.622,0Z" style="fill:#069;fill-rule:nonzero;"/><path d="M3274.91,2362.48l191.731,432.015l-115.657,0l-35.563,-85.351l-193.278,0l-32.162,85.351l-114.111,0l174.105,-432.015l124.935,0m8.659,271.208l-69.581,-167.92l-63.395,167.92l132.976,0m-251.107,-271.208l0,79.167l-156.478,0l0,352.848l-107.617,0l0,-352.848l-156.478,0l0,-79.167l420.573,0m-556.641,0l191.732,432.015l-115.658,0l-35.563,-85.351l-193.278,0l-32.161,85.351l-114.112,0l174.105,-432.015l124.935,0m8.659,271.208l-69.58,-167.92l-63.395,167.92l132.975,0m-735.693,-271.208l190.494,0c73.6,0.001 131.738,20.205 174.414,60.612c42.882,40.203 64.323,92.259 64.323,156.169c0,67.003 -21.75,119.678 -65.25,158.024c-43.295,38.14 -105.144,57.21 -185.547,57.21l-178.434,0l0,-432.015m107.617,79.167l0,273.682l70.198,0c45.562,0 80.404,-12.473 104.525,-37.419c24.121,-25.152 36.181,-58.241 36.182,-99.267c-0.001,-42.47 -12.267,-75.868 -36.8,-100.196c-24.328,-24.533 -59.376,-36.8 -105.144,-36.8l-68.961,0m-207.194,-79.167l0,432.015l-107.617,0l0,-432.015l107.617,0m-203.793,0l-140.706,202.865l190.804,229.15l-134.831,0l-171.012,-202.555l0,202.555l-107.617,0l0,-432.015l107.617,0l0,194.515l137.305,-194.515l118.44,0m-462.939,0l0,432.015l-107.617,0l0,-432.015l107.617,0m-530.046,155.86l-133.593,281.722l-46.387,0l-189.876,-437.582l114.111,0l101.742,238.737l111.018,-238.737l86.589,0l111.019,238.737l101.123,-238.737l114.111,0l-189.258,437.582l-46.386,0l-134.213,-281.722" style="fill:#484848;fill-rule:nonzero;"/></svg>