<?xml version="1.0" encoding="UTF-8" standalone="no"?><!DOCTYPE svg PUBLIC "-//W3C//DTD SVG 1.1//EN" "http://www.w3.org/Graphics/SVG/1.1/DTD/svg11.dtd"><svg width="100%" height="100%" viewBox="0 0 14784 11921" version="1.1" xmlns="http://www.w3.org/2000/svg" xmlns:xlink="http://www.w3.org/1999/xlink" xml:space="preserve" xmlns:serif="http://www.serif.com/" style="fill-rule:evenodd;clip-rule:evenodd;stroke-linejoin:round;stroke-miterlimit:2;"><path d="M371.696,8887.58l506.3,0l-0,-8679.92l-506.3,-0l-0,8679.92Zm1046.4,0l1552.59,0l0,-8679.92l-1552.59,-0l-0,8679.92Zm2059,-8679.92l-0,8679.62l1552.59,-0l0,-8679.62l-1552.59,-0Z" style="fill:#900;fill-rule:nonzero;"/><path d="M12864,8888.21l506.404,0l-0,-8680.54l-506.404,-0l-0,8680.54Zm1046.5,-8680.54l-0,8680.54l506.3,0l-0,-8680.54l-506.3,-0Zm-8357.71,8680.54l506.296,0l0,-8680.54l-506.295,-0l-0,8680.54Zm1046.5,-8680.54l-0,8680.25l506.4,-0l-0,-8680.25l-506.4,-0Z" style="fill:#396;fill-rule:nonzero;"/><path d="M7628.67,8888.21l1552.8,0l-0,-8680.54l-1552.8,-0l-0,8680.54Zm2059,0l539.995,0l0,-8680.54l-539.995,-0l-0,8680.54Zm1046.39,-8680.54l0,8680.25l1552.59,-0l-0,-8680.25l-1552.59,-0Z" style="fill:#069;fill-rule:nonzero;"/><path d="M13645.5,9843.67l798.879,1800.06l-481.904,0l-148.179,-355.629l-805.325,0l-134.008,355.629l-475.463,0l725.438,-1800.06l520.562,-0m36.079,1130.03l-289.92,-699.667l-264.146,699.667l554.067,0m-1046.28,-1130.03l0,329.862l-651.991,0l-0,1470.2l-448.405,0l0.001,-1470.2l-651.992,0l-0,-329.862l1752.39,-0m-2319.34,-0l798.883,1800.06l-481.908,0l-148.179,-355.629l-805.325,0l-134.005,355.629l-475.466,0l725.437,-1800.06l520.563,-0m36.079,1130.03l-289.917,-699.667l-264.146,699.667l554.063,0m-3065.39,-1130.03l793.725,-0c306.667,0.004 548.909,84.187 726.725,252.55c178.675,167.512 268.013,384.412 268.013,650.704c-0,279.179 -90.625,498.658 -271.875,658.433c-180.396,158.917 -438.1,238.375 -773.113,238.375l-743.475,0l0,-1800.06m448.405,329.862l-0,1140.34l292.491,-0c189.842,-0 335.017,-51.971 435.521,-155.913c100.504,-104.8 150.754,-242.67 150.758,-413.612c-0.004,-176.958 -51.112,-316.117 -153.333,-417.483c-101.367,-102.221 -247.4,-153.334 -438.1,-153.334l-287.337,0m-863.309,-329.862l0,1800.06l-448.404,0l0,-1800.06l448.404,-0m-849.137,-0l-586.275,845.271l795.016,954.791l-561.795,0l-712.55,-843.979l-0,843.979l-448.404,0l-0,-1800.06l448.404,-0l-0,810.479l572.104,-810.479l493.5,-0m-1928.91,-0l0,1800.06l-448.404,0l0,-1800.06l448.404,-0m-2208.53,649.416l-556.637,1173.84l-193.279,0l-791.15,-1823.26l475.462,-0l423.925,994.737l462.575,-994.737l360.788,-0l462.579,994.737l421.346,-994.737l475.462,-0l-788.575,1823.26l-193.275,0l-559.221,-1173.84" style="fill:#484848;fill-rule:nonzero;"/><g id="Layer1"><g><g transform="matrix(0.938364,-0.34565,0.34565,0.938364,-1390.41,-514.405)"><text x="3369.1px" y="8656.78px" style="font-family:'Arial-Black', 'Arial Black', sans-serif;font-weight:900;font-size:1666.67px;fill:#454545;">L<tspan x="4452.27px 5840.62px " y="8656.78px 8656.78px ">OC</tspan>AL</text></g></g></g></svg>