<?xml version="1.0" encoding="UTF-8" standalone="no"?><!DOCTYPE svg PUBLIC "-//W3C//DTD SVG 1.1//EN" "http://www.w3.org/Graphics/SVG/1.1/DTD/svg11.dtd"><svg width="100%" height="100%" viewBox="0 0 1121 421" version="1.1" xmlns="http://www.w3.org/2000/svg" xmlns:xlink="http://www.w3.org/1999/xlink" xml:space="preserve" xmlns:serif="http://www.serif.com/" style="fill-rule:evenodd;clip-rule:evenodd;stroke-linejoin:round;stroke-miterlimit:2;"><path d="M1045.15,168.24c0,0 12.663,15.57 38.192,15.57c19.412,-0 33.758,-11.896 33.758,-29.198c0,-35.9 -58.021,-27.465 -58.021,-55.583c0,-14.059 11.813,-19.683 23.842,-19.683c17.933,0 26.587,10.168 26.587,10.168l5.271,-7.356c0,-0 -9.704,-11.678 -31.225,-11.678c-17.937,-0 -33.762,9.95 -33.762,29.197c-0,35.253 58.025,27.47 58.025,54.935c-0,13.41 -11.392,20.331 -24.263,20.331c-20.887,0 -32.704,-13.623 -32.704,-13.623l-5.7,6.92Zm-107.604,-41.742c-0,-26.821 20.254,-47.152 45.362,-47.152c25.109,0 45.363,20.331 45.363,47.152c-0,27.466 -20.254,48.445 -45.363,48.445c-25.108,-0.004 -45.362,-20.984 -45.362,-48.445Zm-9.288,0c0,32.223 24.48,57.312 54.65,57.312c30.175,-0 54.65,-25.089 54.65,-57.312c0,-31.578 -24.475,-56.018 -54.65,-56.018c-30.17,-0.005 -54.65,24.44 -54.65,56.018Zm-25.966,54.717l8.858,0l0,-108.141l-8.858,-0l-0,108.141Zm-0.842,-135.611l10.546,0l-0,-15.787l-10.546,0l0,15.787Zm-64.779,126.745c-22.575,0 -38.188,-17.737 -38.188,-46.934c0,-29.198 13.5,-46.069 36.08,-46.069c20.679,0 36.712,11.247 36.712,46.069c0,35.034 -16.033,46.934 -34.604,46.934Zm-33.967,37.842l-4.221,8.004c10.338,5.407 21.525,8.436 33.125,8.436c25.113,-0 48.317,-12.98 48.317,-46.069l0,-107.492l-8.862,-0l-0,14.49c-0,2.598 0.637,4.108 0.637,4.108l-0.425,0c0,0 -6.75,-21.193 -36.712,-21.193c-27.43,0 -45.363,21.193 -45.363,54.935c0,33.742 19.408,55.801 46.842,55.801c17.508,-0 29.116,-8.866 35.446,-22.059l0.42,0c0,0 -0.845,3.891 -0.845,8.866l-0,12.544c-0,26.168 -17.513,37.203 -40.088,37.203c-15.187,0.004 -28.271,-7.574 -28.271,-7.574Zm-103.325,-58.395c0,-28.114 38.404,-28.114 56.342,-28.114l6.75,0l-0,5.837c-0,21.411 -13.083,45.851 -36.079,45.851c-17.938,0.004 -27.013,-12.109 -27.013,-23.574Zm-9.279,0.649c0,21.628 18.775,31.36 35.867,31.36c27.429,0 37.137,-26.603 36.925,-26.603l0.421,-0c-0,-0 -0.842,3.895 -0.842,9.732l-0,14.277l8.862,-0l0,-69.86c0,-27.034 -13.083,-40.876 -37.345,-40.876c-23,0 -35.659,11.896 -35.659,11.896l5.063,7.352c-0,-0 11.816,-10.381 30.171,-10.381c16.879,-0 28.908,8.218 28.908,32.227l-0,3.678l-6.963,-0c-18.783,-0 -65.408,0.43 -65.408,37.198Zm-36.717,6.925c0,20.331 14.563,22.712 20.68,22.712c1.9,-0 3.8,-0.436 3.8,-0.436l-0,-8.435c-0,-0 -1.48,0.218 -3.167,0.218c-4.85,-0 -12.45,-1.728 -12.45,-16.871l-0,-126.741l-8.863,0l0,129.553Zm-106.758,-42.178c3.796,-25.306 21.733,-38.281 41.142,-38.281c17.512,-0 32.916,11.896 33.971,38.281l-75.113,0Zm-9.917,10.168c0,34.39 24.688,56.45 54.438,56.45c22.787,-0 37.558,-14.921 37.558,-14.921l-4.854,-7.569c0,-0 -12.45,13.623 -32.704,13.623c-24.479,0 -45.15,-17.95 -45.15,-49.311l84.604,0c0,0 0.425,-3.46 0.425,-5.841c0,-26.168 -14.35,-49.311 -43.046,-49.311c-27.004,-0.005 -51.27,20.327 -51.27,56.88Zm-89.226,-17.519l0,-71.371l39.03,0c21.525,0 35.866,12.762 35.866,35.47c0,22.708 -14.341,35.901 -35.866,35.901l-39.029,-0Zm-9.076,71.374l9.076,0l-0,-62.721l39.454,-0c25.741,-0 44.941,-17.084 44.941,-44.554c0,-27.47 -19.2,-44.123 -44.941,-44.123l-48.529,0l-0,151.398Z" style="fill:#1a407b;fill-rule:nonzero;"/><path d="M181.689,372.719l-0.009,-0c-24.142,-0 -47.763,-4.895 -70.21,-14.539c-92.424,-39.73 -136.084,-149.128 -97.33,-243.868c28.41,-69.443 94.235,-114.312 167.696,-114.312c24.137,-0 47.763,4.895 70.211,14.539c44.773,19.247 79.553,55.214 97.94,101.274c18.382,46.06 18.166,96.699 -0.607,142.594c-28.41,69.438 -94.235,114.312 -167.691,114.312Zm0.143,-365.754c-70.714,0 -134.077,43.195 -161.421,110.034c-37.303,91.195 4.723,196.503 93.689,234.749c21.606,9.288 44.344,13.997 67.58,13.997c70.718,0.004 134.077,-43.19 161.425,-110.039c18.075,-44.171 18.283,-92.918 0.585,-137.259c-17.693,-44.336 -51.178,-78.957 -94.274,-97.481c-21.611,-9.292 -44.348,-14.001 -67.584,-14.001Z" style="fill:#0797d5;fill-rule:nonzero;"/><path d="M128.231,325.48l-3.146,-1.327l-12.201,30.371l3.146,1.328l12.201,-30.372Z" style="fill:#0797d5;fill-rule:nonzero;"/><path d="M251.407,18.17l-3.143,-1.322l-12.168,30.388l3.143,1.322l12.168,-30.388Z" style="fill:#0797d5;fill-rule:nonzero;"/><path d="M347.369,254.011l-29.636,-12.493l-1.29,3.217l29.635,12.492l1.291,-3.216Z" style="fill:#0797d5;fill-rule:nonzero;"/><path d="M47.755,127.805l-29.635,-12.487l-1.291,3.221l29.635,12.487l1.291,-3.221Z" style="fill:#0797d5;fill-rule:nonzero;"/><path d="M125.787,326.69l-80.62,-198.031l193.198,-82.639l80.62,198.035l-1.569,0.666l-191.629,81.969Zm-76.178,-196.156l78.002,191.603l186.928,-79.957l-78.002,-191.603l-186.928,79.957Z" style="fill:#0797d5;fill-rule:nonzero;"/><rect x="180.112" y="3.207" width="3.389" height="67.2" style="fill:#0797d5;fill-rule:nonzero;"/><path d="M105.198,105.975l-47.632,-49.437l-2.417,2.447l47.632,49.437l2.417,-2.447Z" style="fill:#0797d5;fill-rule:nonzero;"/><path d="M308.708,58.639l-2.413,-2.452l-45.524,47.075l2.413,2.452l45.523,-47.075Z" style="fill:#0797d5;fill-rule:nonzero;"/><rect x="4.68" y="184.678" width="64.56" height="3.478" style="fill:#0797d5;fill-rule:nonzero;"/><path d="M239.077,326.393l-1.569,-0.662l-192.041,-80.939l79.605,-198.475l1.569,0.663l192.046,80.938l-79.61,198.475Zm-189.177,-83.502l187.331,78.953l77.023,-192.029l-187.331,-78.953l-77.023,192.029Z" style="fill:#0797d5;fill-rule:nonzero;"/><path d="M252.198,354.239l-12.344,-30.316l-3.136,1.341l12.344,30.317l3.136,-1.342Z" style="fill:#0797d5;fill-rule:nonzero;"/><path d="M127.39,47.62l-12.341,-30.317l-3.135,1.342l12.341,30.316l3.135,-1.341Z" style="fill:#0797d5;fill-rule:nonzero;"/><path d="M347.021,117.77l-1.308,-3.214l-29.578,12.644l1.308,3.214l29.578,-12.644Z" style="fill:#0797d5;fill-rule:nonzero;"/><path d="M47.945,245.58l-1.307,-3.21l-29.572,12.657l1.307,3.21l29.572,-12.657Z" style="fill:#0797d5;fill-rule:nonzero;"/><rect x="180.515" y="299.03" width="3.389" height="70.384" style="fill:#0797d5;fill-rule:nonzero;"/><path d="M308.996,313.771l-47.628,-49.434l-2.418,2.447l47.629,49.434l2.417,-2.447Z" style="fill:#0797d5;fill-rule:nonzero;"/><path d="M104.334,270.027l-2.375,-2.491l-46.548,46.634l2.375,2.491l46.548,-46.634Z" style="fill:#0797d5;fill-rule:nonzero;"/><rect x="295.204" y="184.678" width="64.555" height="3.478" style="fill:#0797d5;fill-rule:nonzero;"/><path d="M57.935,57.899l-3.361,-0.446l-9.16,72.573l3.361,0.445l9.16,-72.572Z" style="fill:#0797d5;fill-rule:nonzero;"/><path d="M48.425,131.468l-2.7,-2.115l-41.988,56.448l2.699,2.115l41.989,-56.448Z" style="fill:#0797d5;fill-rule:nonzero;"/><path d="M48.576,242.925l-42.171,-57.272l-2.707,2.104l42.172,57.272l2.706,-2.104Z" style="fill:#0797d5;fill-rule:nonzero;"/><path d="M58.212,315.103l-9.258,-71.318l-3.359,0.458l9.257,71.319l3.36,-0.459Z" style="fill:#0797d5;fill-rule:nonzero;"/><path d="M125.176,321.965l-68.381,-8.394l-0.404,3.459l68.382,8.393l0.403,-3.458Z" style="fill:#0797d5;fill-rule:nonzero;"/><path d="M183.817,366.983l-57.776,-44.783l-2.049,2.778l57.776,44.782l2.049,-2.777Z" style="fill:#0797d5;fill-rule:nonzero;"/><path d="M239.308,325.94l-2.078,-2.76l-55.565,43.97l2.078,2.761l55.565,-43.971Z" style="fill:#0797d5;fill-rule:nonzero;"/><path d="M307.865,315.868l-0.482,-3.439l-69.287,10.196l0.482,3.439l69.287,-10.197Z" style="fill:#0797d5;fill-rule:nonzero;"/><path d="M317.706,245.067l-3.363,-0.433l-8.492,69.374l3.363,0.432l8.492,-69.373Z" style="fill:#0797d5;fill-rule:nonzero;"/><path d="M358.624,187.698l-2.747,-2.048l-41.291,58.191l2.748,2.049l41.29,-58.192Z" style="fill:#0797d5;fill-rule:nonzero;"/><path d="M358.662,185.679l-40.534,-57.949l-2.761,2.03l40.533,57.948l2.762,-2.029Z" style="fill:#0797d5;fill-rule:nonzero;"/><path d="M318.372,128.516l-9.258,-71.323l-3.36,0.458l9.258,71.323l3.36,-0.458Z" style="fill:#0797d5;fill-rule:nonzero;"/><path d="M307.708,55.628l-68.672,-9.107l-0.435,3.45l68.672,9.107l0.435,-3.45Z" style="fill:#0797d5;fill-rule:nonzero;"/><path d="M239.984,46.871l-57.485,-44.056l-2.034,2.789l57.484,44.056l2.035,-2.789Z" style="fill:#0797d5;fill-rule:nonzero;"/><path d="M182.522,5.611l-2.116,-2.724l-54.519,44.498l2.116,2.725l54.519,-44.499Z" style="fill:#0797d5;fill-rule:nonzero;"/><path d="M127.11,50.56l-0.418,-3.452l-70.609,8.993l0.418,3.452l70.609,-8.993Z" style="fill:#0797d5;fill-rule:nonzero;"/><g id="added"><g transform="matrix(4.16667,0,0,4.16667,-21.9423,-178.235)"><text x="109.403px" y="107.408px" style="font-family:'Avenir-Book', 'Avenir';font-size:22px;fill:#0797d5;">network</text><text x="109.403px" y="125.408px" style="font-family:'Avenir-Book', 'Avenir';font-size:22px;fill:#0797d5;">pa</text><text x="134.263px" y="125.408px" style="font-family:'Avenir-Book', 'Avenir';font-size:22px;fill:#0797d5;">r</text><text x="143.107px" y="125.408px" style="font-family:'Avenir-Book', 'Avenir';font-size:22px;fill:#0797d5;">tner</text></g></g></svg>