<?xml version="1.0" encoding="iso-8859-1"?>
<!-- Generator: Adobe Illustrator 18.0.0, SVG Export Plug-In . SVG Version: 6.00 Build 0)  -->
<!DOCTYPE svg PUBLIC "-//W3C//DTD SVG 1.1//EN" "http://www.w3.org/Graphics/SVG/1.1/DTD/svg11.dtd">
<svg version="1.1" id="Capa_1" xmlns="http://www.w3.org/2000/svg" xmlns:xlink="http://www.w3.org/1999/xlink" x="0px" y="0px"
	 viewBox="0 0 60 60" style="enable-background:new 0 0 60 60;" xml:space="preserve">
<path d="M60,8V0h-8v3H34V0h-8v3H8V0H0v8h3v18H0v8h3v18H0v8h8v-3h18v3h8v-3h18v3h8v-8h-3V34h3v-8h-3V8H60z M54,2h4v4h-1h-3V3V2z
	 M28,2h4v1v3h-4V3V2z M2,6V2h4v1v3H3H2z M2,32v-4h1h3v4H3H2z M6,58H2v-4h1h3v3V58z M32,58h-4v-1v-3h4v3V58z M58,54v4h-4v-1v-3h3H58z
	 M58,28v4h-1h-3v-4h3H58z M55,26h-3v8h3v18h-3v3H34v-3h-8v3H8v-3H5V34h3v-8H5V8h3V5h18v3h8V5h18v3h3V26z"/>
<g>
</g>
<g>
</g>
<g>
</g>
<g>
</g>
<g>
</g>
<g>
</g>
<g>
</g>
<g>
</g>
<g>
</g>
<g>
</g>
<g>
</g>
<g>
</g>
<g>
</g>
<g>
</g>
<g>
</g>
</svg>
